<?xml version="1.0" standalone="no"?>
<!DOCTYPE svg PUBLIC "-//W3C//DTD SVG 1.1//EN" "http://www.w3.org/Graphics/SVG/1.1/DTD/svg11.dtd">
<svg width="225px" height="60px" version="1.1" xmlns="http://www.w3.org/2000/svg" xmlns:xlink="http://www.w3.org/1999/xlink" xml:space="preserve" style="fill-rule:evenodd;clip-rule:evenodd;stroke-linejoin:round;stroke-miterlimit:1.41421;">
    <g>
        <g id="Layer1">
            <g>
                <clipPath id="tag1">
                    <rect x="-3.55271e-15" y="0" width="59.5249" height="60"/>
                </clipPath>
                <g clip-path="url(#tag1)">
                    <g opacity="0.759995">
                        <path d="M3.34852,30.0005C3.34852,15.2961 15.1744,3.37575 29.7625,3.37575C44.3505,3.37575 56.1764,15.2961 56.1764,30.0005C56.1764,44.705 44.3505,56.6253 29.7625,56.6253C15.1744,56.6253 3.34852,44.705 3.34852,30.0005" style="fill:rgb(15,82,93);fill-rule:nonzero;"/>
                        <path d="M29.7625,60L29.5705,60L29.3787,59.998L29.187,59.9949L28.9959,59.9909L28.6142,59.9788L28.4238,59.9707L28.2337,59.9616L28.0438,59.9515L27.8542,59.9393L27.6651,59.9272L27.476,59.913L27.2876,59.8979L27.0992,59.8817L26.9111,59.8645L26.5359,59.8261L26.349,59.8048L26.1626,59.7826L25.976,59.7593L25.7899,59.735L25.6045,59.7098L25.4192,59.6824L25.2341,59.6551L25.0496,59.6258L24.8652,59.5955L24.6813,59.5641L24.4979,59.5318L24.3148,59.4984L24.132,59.464L23.9497,59.4276L23.7678,59.3912L23.5864,59.3528L23.4051,59.3133L23.2242,59.2739L23.0441,59.2324L22.8642,59.1899L22.6845,59.1465L22.5056,59.102L22.1484,59.0089L21.9706,58.9614L21.7935,58.9118L21.6167,58.8623L21.44,58.8107L21.2639,58.7591L21.0883,58.7055L20.9132,58.6509L20.7387,58.5953L20.5644,58.5397L20.3906,58.482L20.2175,58.4234L20.0445,58.3637L19.8722,58.303L19.7005,58.2413L19.5293,58.1786L19.3584,58.1159L19.1879,58.0502L19.018,57.9845L18.8488,57.9187L18.68,57.851L18.5116,57.7822L18.3439,57.7124L18.1764,57.6416L18.0098,57.5698L17.8435,57.497L17.6777,57.4232L17.5126,57.3483L17.3481,57.2735L17.1839,57.1966L17.0204,57.1188L16.8575,57.0409L16.695,56.961L16.533,56.8801L16.3716,56.7992L16.2109,56.7163L16.0508,56.6333L15.8911,56.5494L15.732,56.4634L15.5737,56.3775L15.4157,56.2905L15.2582,56.2025L15.1017,56.1135L14.9456,56.0235L14.7901,55.9325L14.6352,55.8415L14.4807,55.7485L14.327,55.6554L14.1741,55.5603L14.0216,55.4653L13.8697,55.3692L13.7183,55.2721L13.5676,55.174L13.4179,55.0749L13.2684,54.9758L13.1196,54.8747L12.9716,54.7736L12.8241,54.6714L12.6773,54.5672L12.5312,54.4641L12.3857,54.3589L12.2408,54.2527L12.0967,54.1465L11.9531,54.0383L11.8103,53.9301L11.6681,53.8209L11.5265,53.7107L11.3858,53.6004L11.2457,53.4882L11.1062,53.3759L10.9675,53.2627L10.8293,53.1484L10.692,53.0331L10.5553,52.9178L10.4193,52.8015L10.2842,52.6842L10.1495,52.5659L10.0157,52.4465L9.88263,52.3272L9.75009,52.2058L9.61846,52.0845L9.48743,51.9631L9.3572,51.8397L9.22777,51.7164L9.09905,51.592L8.97093,51.4666L8.84371,51.3402L8.71719,51.2137L8.59148,51.0863L8.46637,50.9579L8.34216,50.8284L8.21865,50.699L8.09605,50.5685L7.97405,50.4371L7.85275,50.3056L7.73235,50.1721L7.61286,50.0386L7.49397,49.9051L7.37588,49.7696L7.25859,49.6341L7.14221,49.4975L7.02653,49.361L6.91155,49.2225L6.79757,49.0849L6.6844,48.9454L6.57183,48.8058L6.46016,48.6652L6.3494,48.5237L6.23944,48.3821L6.13028,48.2395L6.02192,48.0959L5.91447,47.9523L5.80772,47.8066L5.70197,47.662L5.59702,47.5154L5.49288,47.3687L5.38964,47.2221L5.2872,47.0734L5.18567,46.9258L5.08494,46.7761L4.98511,46.6264L4.88608,46.4758L4.78806,46.3241L4.69084,46.1724L4.59452,46.0197L4.49911,45.8669L4.4045,45.7132L4.31079,45.5585L4.21808,45.4038L4.12628,45.248L4.03518,45.0923L3.94519,44.9355L3.85609,44.7778L3.7678,44.62L3.68051,44.4612L3.59413,44.3024L3.50865,44.1427L3.42417,43.9829L3.3405,43.8211L3.25782,43.6603L3.17615,43.4985L3.09529,43.3356L3.01543,43.1718L2.93667,43.009L2.85871,42.8441L2.78176,42.6793L2.70571,42.5134L2.63066,42.3476L2.55662,42.1817L2.48347,42.0149L2.41134,41.847L2.3402,41.6791L2.27007,41.5102L2.20094,41.3413L2.13272,41.1714L2.0656,41.0015L1.99938,40.8306L1.93417,40.6597L1.87006,40.4878L1.80695,40.3159L1.74474,40.1429L1.68364,39.969L1.62354,39.7961L1.56455,39.6221L1.50646,39.4472L1.44947,39.2722L1.39349,39.0962L1.33861,38.9203L1.28473,38.7433L1.23185,38.5663L1.18008,38.3893L1.12942,38.2113L1.07975,38.0333L1.03109,37.8543L0.983638,37.6753L0.937185,37.4953L0.891836,37.3153L0.84749,37.1343L0.804247,36.9533L0.762209,36.7722L0.721174,36.5902L0.681142,36.4082L0.642314,36.2261L0.60459,36.0431L0.56797,35.859L0.532453,35.676L0.498039,35.4919L0.46473,35.3068L0.432524,35.1218L0.401421,34.9367L0.371523,34.7506L0.342728,34.5645L0.315037,34.3785L0.28855,34.1914L0.263166,34.0043L0.238886,33.8172L0.21581,33.6291L0.193938,33.441L0.17307,33.2529L0.153505,33.0638L0.135045,32.8746L0.117687,32.6845L0.101635,32.4954L0.0866853,32.3053L0.0728398,32.1141L0.0602985,31.924L0.0488608,31.7329L0.0386271,31.5417L0.0295974,31.3496L0.0217717,31.1574L0.0151499,30.9653L0.0096317,30.7731L0.00541783,30.58L0.00240793,30.3868L0.000601981,30.1937L-3.55271e-15,30.0106L3.34852,30.0005L-3.55271e-15,29.9894L0.000601981,29.8063L0.00240793,29.6132L0.00541783,29.42L0.0096317,29.2279L0.0151499,29.0347L0.0217717,28.8426L0.0295974,28.6514L0.0386271,28.4593L0.0488608,28.2681L0.0602985,28.077L0.0728398,27.8859L0.0866853,27.6957L0.101635,27.5056L0.117687,27.3155L0.135045,27.1264L0.153505,26.9372L0.17307,26.7481L0.193938,26.56L0.21581,26.3719L0.238886,26.1838L0.263166,25.9967L0.28855,25.8086L0.315037,25.6225L0.342728,25.4355L0.371523,25.2494L0.401421,25.0643L0.432524,24.8792L0.46473,24.6942L0.498039,24.5091L0.532453,24.325L0.56797,24.141L0.60459,23.9579L0.642314,23.7749L0.681142,23.5928L0.721174,23.4098L0.762109,23.2288L0.804247,23.0467L0.84749,22.8657L0.891836,22.6857L0.937185,22.5057L0.983638,22.3257L1.03119,22.1467L1.07975,21.9677L1.12942,21.7897L1.18008,21.6117L1.23185,21.4337L1.28473,21.2567L1.33861,21.0808L1.39349,20.9048L1.44947,20.7288L1.50646,20.5539L1.56455,20.3789L1.62354,20.205L1.68364,20.031L1.74474,19.8581L1.80695,19.6851L1.87006,19.5132L1.93427,19.3413L1.99938,19.1704L2.0656,18.9995L2.13272,18.8296L2.20094,18.6597L2.27007,18.4908L2.3402,18.3219L2.41134,18.154L2.48347,17.9861L2.55662,17.8193L2.63066,17.6524L2.70571,17.4866L2.78176,17.3217L2.85871,17.1569L2.93657,16.992L3.01553,16.8282L3.09539,16.6654L3.17615,16.5026L3.25782,16.3407L3.3405,16.1789L3.42417,16.0181L3.50865,15.8583L3.59413,15.6986L3.68051,15.5388L3.7678,15.381L3.85609,15.2222L3.94519,15.0655L4.03518,14.9087L4.12628,14.752L4.21808,14.5962L4.31079,14.4415L4.4045,14.2878L4.49911,14.1341L4.59452,13.9803L4.69084,13.8287L4.78806,13.6759L4.88608,13.5253L4.98511,13.3746L5.08494,13.2249L5.18567,13.0752L5.2872,12.9266L5.38954,12.7789L5.49288,12.6313L5.59702,12.4846L5.70197,12.339L5.80772,12.1934L5.91447,12.0487L6.02192,11.9051L6.13028,11.7615L6.23944,11.6189L6.3494,11.4774L6.46016,11.3358L6.57183,11.1952L6.6844,11.0556L6.79757,10.9161L6.91155,10.7775L7.02653,10.64L7.14221,10.5025L7.25859,10.3669L7.37588,10.2314L7.49397,10.0959L7.61276,9.9614L7.73235,9.82791L7.85285,9.69543L7.97405,9.56396L8.09605,9.43249L8.21855,9.30203L8.34216,9.17157L8.46647,9.04313L8.59148,8.9147L8.71719,8.78727L8.84371,8.66086L8.97093,8.53444L9.09905,8.40904L9.22777,8.28465L9.3572,8.16127L9.48743,8.03789L9.61846,7.91552L9.75009,7.79416L9.88263,7.67382L10.0157,7.55448L10.1495,7.43515L10.2842,7.31683L10.4193,7.19951L10.5553,7.08321L10.692,6.96691L10.8293,6.85264L10.9675,6.73836L11.1062,6.62509L11.2457,6.51182L11.3858,6.40058L11.5265,6.28934L11.6681,6.1791L11.8103,6.06988L11.9531,5.96167L12.0966,5.85447L12.2408,5.74828L12.3858,5.6421L12.5312,5.53692L12.6773,5.43276L12.8241,5.3296L12.9715,5.22746L13.1196,5.12633L13.2684,5.0252L13.4177,4.92508L13.5678,4.82698L13.7184,4.72888L13.8697,4.6318L14.0215,4.53572L14.174,4.43965L14.3272,4.3456L14.4808,4.25256L14.635,4.15952L14.7901,4.06749L14.9456,3.97748L15.1016,3.88747L15.2584,3.79848L15.4157,3.7105L15.5737,3.62352L15.7321,3.53655L15.8911,3.4516L16.0508,3.36766L16.2109,3.28473L16.3716,3.20181L16.533,3.1209L16.695,3.04L16.8574,2.9601L17.0204,2.88223L17.1841,2.80436L17.3479,2.7275L17.5126,2.65165L17.6779,2.57783L17.8434,2.504L18.0098,2.43119L18.1766,2.35939L18.3439,2.28859L18.5116,2.21881L18.6798,2.15004L18.8488,2.08229L19.0181,2.01554L19.1879,1.94981L19.3583,1.88508L19.5291,1.82137L19.7005,1.75867L19.8723,1.69698L20.0447,1.63731L20.2173,1.57764L20.3906,1.51899L20.5646,1.46134L20.7387,1.40471L20.9132,1.3501L21.0883,1.29549L21.2639,1.24189L21.44,1.19031L21.6165,1.13873L21.7933,1.08918L21.9708,1.03963L22.1486,0.992095L22.3268,0.944563L22.5056,0.899054L22.6847,0.854557L22.864,0.81107L23.0441,0.768595L23.2244,0.727132L23.4051,0.686679L23.5862,0.64825L23.7678,0.60982L23.9499,0.572401L24.132,0.537006L24.3148,0.502621L24.4979,0.469248L24.6813,0.435875L24.8652,0.405535L25.0496,0.375196L25.2341,0.345868L25.4192,0.317551L25.6045,0.291257L25.7899,0.265974L25.976,0.241703L26.1624,0.218443L26.349,0.196194L26.5362,0.174957L26.7236,0.15473L26.9111,0.136527L27.099,0.119335L27.2876,0.103154L27.4762,0.087984L27.6651,0.0738256L27.8542,0.0606786L28.0438,0.0495542L28.2337,0.0394411L28.4238,0.0303393L28.6142,0.0222488L28.8048,0.0151696L28.9959,0.0101131L29.1872,0.00606786L29.3787,0.00303393L29.5703,0.00101131L29.7625,0L29.9545,0.00101131L30.1462,0.00303393L30.3378,0.00606786L30.529,0.0101131L30.72,0.0151696L30.9107,0.0222488L31.1012,0.0303393L31.2912,0.0394411L31.4811,0.0495542L31.6707,0.0606786L31.8599,0.0738256L32.0487,0.087984L32.2373,0.103154L32.4259,0.119335L32.6139,0.136527L32.8013,0.15473L32.9887,0.174957L33.1759,0.196194L33.3625,0.218443L33.5489,0.241703L33.735,0.265974L33.9205,0.291257L34.1058,0.317551L34.2909,0.345868L34.4754,0.375196L34.6596,0.405535L34.8436,0.435875L35.027,0.469248L35.2101,0.502621L35.3929,0.537006L35.575,0.572401L35.7571,0.60982L35.9387,0.64825L36.1198,0.686679L36.3005,0.727132L36.4809,0.768595L36.6609,0.81107L36.8402,0.854557L37.0194,0.899054L37.198,0.944563L37.3763,0.992095L37.5541,1.03963L37.7316,1.08918L37.9085,1.13873L38.085,1.19031L38.261,1.24189L38.4366,1.29549L38.6117,1.3501L38.7863,1.40471L38.9603,1.46134L39.1343,1.51899L39.3076,1.57764L39.4803,1.63731L39.6526,1.69698L39.8244,1.75867L39.9958,1.82137L40.1666,1.88508L40.3371,1.94981L40.5067,2.01554L40.6761,2.08229L40.845,2.15004L41.0133,2.21881L41.181,2.28859L41.3483,2.35939L41.5151,2.43119L41.6815,2.504L41.847,2.57783L42.0123,2.65165L42.177,2.7275L42.3409,2.80436L42.5045,2.88223L42.6675,2.9601L42.83,3.04L42.9919,3.1209L43.1533,3.20181L43.3141,3.28473L43.4741,3.36766L43.6338,3.4516L43.7927,3.53655L43.9513,3.62352L44.1092,3.7105L44.2665,3.79848L44.4233,3.88747L44.5793,3.97748L44.7348,4.06749L44.8899,4.15952L45.0441,4.25256L45.1978,4.3456L45.351,4.43965L45.5035,4.53572L45.6553,4.6318L45.8065,4.72888L45.9572,4.82698L46.1073,4.92508L46.2566,5.0252L46.4052,5.12633L46.5534,5.22746L46.7008,5.3296L46.8476,5.43276L46.9937,5.53692L47.1392,5.6421L47.2841,5.74828L47.4283,5.85447L47.5718,5.96167L47.7146,6.06988L47.8568,6.1791L47.9984,6.28934L48.1392,6.40058L48.2792,6.51182L48.4188,6.62509L48.5574,6.73836L48.6955,6.85264L48.8329,6.96691L48.9696,7.08321L49.1055,7.19951L49.2408,7.31683L49.3754,7.43515L49.5093,7.55448L49.6423,7.67382L49.7748,7.79416L49.9065,7.91552L50.0375,8.03789L50.1677,8.16127L50.2971,8.28465L50.4259,8.40904L50.554,8.53444L50.6812,8.66086L50.8077,8.78727L50.9335,8.9147L51.0585,9.04313L51.1828,9.17157L51.3063,9.30203L51.4289,9.43249L51.5509,9.56396L51.6721,9.69543L51.7926,9.82791L51.9122,9.9614L52.031,10.0959L52.1491,10.2314L52.2663,10.3669L52.3827,10.5025L52.4984,10.64L52.6134,10.7775L52.7274,10.9161L52.8406,11.0556L52.9531,11.1952L53.0647,11.3358L53.1754,11.4774L53.2855,11.6189L53.3947,11.7615L53.503,11.9051L53.6105,12.0487L53.7171,12.1934L53.823,12.339L53.9279,12.4846L54.032,12.6313L54.1354,12.7789L54.2377,12.9266L54.3393,13.0752L54.44,13.2249L54.5398,13.3746L54.6387,13.5253L54.7368,13.6759L54.8341,13.8287L54.9304,13.9803L55.0258,14.1341L55.1204,14.2878L55.2141,14.4415L55.3068,14.5962L55.3986,14.752L55.4897,14.9087L55.5796,15.0655L55.6688,15.2222L55.7571,15.381L55.8444,15.5388L55.9308,15.6986L56.0163,15.8583L56.1008,16.0181L56.1844,16.1789L56.2671,16.3407L56.3488,16.5026L56.4295,16.6654L56.5094,16.8282L56.5883,16.992L56.6662,17.1569L56.7432,17.3217L56.8192,17.4866L56.8943,17.6524L56.9683,17.8193L57.0415,17.9861L57.1136,18.154L57.1846,18.3219L57.2549,18.4908L57.324,18.6597L57.3922,18.8296L57.4593,18.9995L57.5254,19.1704L57.5907,19.3413L57.6549,19.5132L57.718,19.6851L57.7802,19.8581L57.8412,20.031L57.9013,20.205L57.9604,20.3789L58.0185,20.5539L58.0755,20.7288L58.1314,20.9048L58.1863,21.0808L58.2402,21.2567L58.293,21.4337L58.3448,21.6117L58.3955,21.7897L58.4452,21.9677L58.4937,22.1467L58.5413,22.3257L58.5877,22.5057L58.6331,22.6857L58.6774,22.8657L58.7206,23.0467L58.7627,23.2288L58.8038,23.4098L58.8437,23.5918L58.8826,23.7749L58.9203,23.9579L58.957,24.141L58.9925,24.325L59.0269,24.5091L59.0602,24.6942L59.0924,24.8792L59.1234,25.0643L59.1534,25.2494L59.1822,25.4355L59.2098,25.6225L59.2364,25.8086L59.2618,25.9967L59.286,26.1838L59.3091,26.3719L59.331,26.56L59.3519,26.7481L59.3714,26.9372L59.3899,27.1264L59.4071,27.3155L59.4233,27.5056L59.4382,27.6957L59.4521,27.8859L59.4646,28.077L59.4761,28.2681L59.4863,28.4593L59.4953,28.6514L59.5032,28.8426L59.5098,29.0347L59.5152,29.2279L59.5195,29.42L59.5225,29.6132L59.5243,29.8063L59.5249,30.0005L59.5243,30.1937L59.5225,30.3868L59.5195,30.58L59.5152,30.7731L59.5098,30.9653L59.5032,31.1574L59.4953,31.3496L59.4863,31.5417L59.4761,31.7329L59.4646,31.924L59.4521,32.1141L59.4382,32.3053L59.4233,32.4954L59.4071,32.6845L59.3899,32.8746L59.3714,33.0638L59.3518,33.2529L59.331,33.441L59.3091,33.6291L59.286,33.8172L59.2618,34.0043L59.2364,34.1914L59.2098,34.3785L59.1822,34.5645L59.1534,34.7506L59.1234,34.9367L59.0924,35.1218L59.0602,35.3068L59.0269,35.4919L58.9925,35.676L58.957,35.859L58.9203,36.0431L58.8826,36.2261L58.8437,36.4082L58.8038,36.5902L58.7627,36.7722L58.7206,36.9543L58.6774,37.1343L58.6331,37.3153L58.5877,37.4953L58.5413,37.6753L58.4937,37.8543L58.4452,38.0333L58.3955,38.2113L58.3448,38.3893L58.293,38.5663L58.2402,38.7433L58.1863,38.9203L58.1314,39.0962L58.0755,39.2722L58.0185,39.4472L57.9604,39.6221L57.9013,39.7961L57.8412,39.97L57.7801,40.1429L57.718,40.3159L57.6549,40.4878L57.5907,40.6597L57.5255,40.8306L57.4593,41.0015L57.3922,41.1714L57.324,41.3413L57.2549,41.5102L57.1846,41.6791L57.1136,41.847L57.0415,42.0149L56.9683,42.1817L56.8943,42.3476L56.8192,42.5134L56.7432,42.6793L56.6662,42.8441L56.5883,43.009L56.5094,43.1718L56.4296,43.3356L56.3488,43.4985L56.2671,43.6603L56.1844,43.8211L56.1008,43.9829L56.0163,44.1427L55.9308,44.3024L55.8444,44.4612L55.7571,44.62L55.6688,44.7778L55.5796,44.9355L55.4897,45.0923L55.3986,45.248L55.3068,45.4038L55.2141,45.5585L55.1204,45.7132L55.0258,45.8669L54.9304,46.0197L54.8341,46.1724L54.7369,46.3241L54.6387,46.4758L54.5398,46.6264L54.44,46.7761L54.3393,46.9258L54.2377,47.0744L54.1353,47.2221L54.032,47.3687L53.9279,47.5154L53.823,47.662L53.7171,47.8076L53.6105,47.9523L53.503,48.0959L53.3946,48.2395L53.2855,48.3821L53.1755,48.5237L53.0647,48.6652L52.9531,48.8058L52.8406,48.9454L52.7274,49.0849L52.6134,49.2235L52.4984,49.361L52.3827,49.4975L52.2663,49.6341L52.1491,49.7696L52.031,49.9051L51.9121,50.0386L51.7926,50.1721L51.6722,50.3056L51.5509,50.4371L51.4289,50.5685L51.3062,50.699L51.1828,50.8284L51.0586,50.9579L50.9335,51.0863L50.8077,51.2137L50.6812,51.3402L50.554,51.4666L50.4259,51.592L50.2971,51.7164L50.1677,51.8397L50.0375,51.9631L49.9065,52.0845L49.7748,52.2058L49.6423,52.3272L49.5093,52.4465L49.3754,52.5659L49.2408,52.6842L49.1055,52.8015L48.9696,52.9178L48.8329,53.0331L48.6955,53.1484L48.5574,53.2627L48.4188,53.3759L48.2792,53.4882L48.1392,53.6004L47.9984,53.7107L47.8568,53.8209L47.7146,53.9301L47.5718,54.0383L47.4282,54.1465L47.2841,54.2527L47.1393,54.3589L46.9937,54.4641L46.8476,54.5683L46.7008,54.6714L46.5533,54.7736L46.4052,54.8747L46.2566,54.9758L46.1071,55.0749L45.9574,55.174L45.8067,55.2721L45.6553,55.3692L45.5034,55.4653L45.3509,55.5603L45.1979,55.6554L45.0443,55.7485L44.8898,55.8415L44.7348,55.9325L44.5793,56.0235L44.4232,56.1135L44.2666,56.2025L44.1092,56.2905L43.9513,56.3775L43.7929,56.4634L43.6338,56.5494L43.4741,56.6333L43.3141,56.7163L43.1533,56.7992L42.9919,56.8801L42.83,56.961L42.6674,57.0409L42.5045,57.1188L42.3411,57.1966L42.1768,57.2735L42.0123,57.3483L41.8472,57.4232L41.6813,57.497L41.5151,57.5698L41.3485,57.6416L41.181,57.7124L41.0133,57.7822L40.8449,57.851L40.6761,57.9187L40.5069,57.9845L40.3371,58.0502L40.1664,58.1159L39.9956,58.1786L39.8244,58.2413L39.6527,58.303L39.4805,58.3637L39.3074,58.4234L39.1343,58.482L38.9605,58.5397L38.7863,58.5953L38.6117,58.6509L38.4366,58.7055L38.261,58.7591L38.085,58.8107L37.9083,58.8623L37.7314,58.9118L37.5543,58.9614L37.3764,59.0089L37.1979,59.0554L37.0194,59.102L36.8404,59.1465L36.6607,59.1899L36.4809,59.2324L36.3007,59.2739L36.1198,59.3133L35.9385,59.3528L35.7571,59.3912L35.5752,59.4276L35.3929,59.464L35.2101,59.4984L35.027,59.5318L34.8436,59.5641L34.6596,59.5955L34.4754,59.6258L34.2909,59.6551L34.1058,59.6824L33.9205,59.7098L33.735,59.735L33.5489,59.7593L33.3623,59.7826L33.1759,59.8048L32.9889,59.8261L32.8013,59.8453L32.6139,59.8645L32.4257,59.8817L32.2373,59.8979L32.0489,59.913L31.8599,59.9272L31.6707,59.9393L31.4811,59.9515L31.2912,59.9616L31.1012,59.9707L30.9107,59.9788L30.529,59.9909L30.338,59.9949L30.1462,59.998L29.9543,60ZM29.7625,53.2495L29.9123,53.2495L30.2104,53.2455L30.3594,53.2424L30.5081,53.2384L30.8044,53.2262L30.9523,53.2192L31.247,53.203L31.394,53.1929L31.6873,53.1706L31.8334,53.1575L31.9792,53.1443L32.1249,53.1302L32.4151,53.0978L32.5601,53.0806L32.7043,53.0634L32.8484,53.0442L32.9925,53.024L33.1361,53.0038L33.2792,52.9815L33.4223,52.9593L33.5649,52.936L33.7072,52.9117L33.8493,52.8864L33.9911,52.8602L34.1324,52.8339L34.2736,52.8066L34.4145,52.7772L34.5551,52.7479L34.6952,52.7176L34.9745,52.6549L35.1139,52.6215L35.2525,52.5881L35.3912,52.5537L35.5295,52.5183L35.6671,52.4819L35.8046,52.4445L35.9421,52.4071L36.079,52.3687L36.2152,52.3292L36.3514,52.2888L36.4872,52.2473L36.6226,52.2048L36.7579,52.1623L36.8924,52.1189L37.0268,52.0744L37.161,52.0289L37.2943,51.9833L37.4276,51.9358L37.5606,51.8883L37.6933,51.8397L37.8254,51.7912L37.9569,51.7406L38.0883,51.6901L38.2195,51.6385L38.3501,51.5859L38.4803,51.5333L38.6102,51.4787L38.7394,51.4241L38.8685,51.3685L38.9973,51.3128L39.2533,51.1976L39.3807,51.1389L39.5076,51.0802L39.6344,51.0196L39.7606,50.9589L39.8862,50.8972L40.0115,50.8355L40.1363,50.7718L40.2608,50.7081L40.385,50.6434L40.5086,50.5786L40.6316,50.5129L40.7545,50.4462L40.8767,50.3784L40.9985,50.3106L41.12,50.2409L41.241,50.1721L41.3615,50.1013L41.4816,50.0305L41.601,49.9587L41.7202,49.8859L41.839,49.8131L41.9572,49.7393L42.0748,49.6644L42.192,49.5896L42.3087,49.5137L42.4252,49.4369L42.5409,49.359L42.6562,49.2811L42.7711,49.2022L42.8854,49.1234L42.9992,49.0435L43.1126,48.9626L43.2254,48.8806L43.3377,48.7987L43.4496,48.7158L43.5609,48.6329L43.6717,48.5489L43.782,48.464L43.8917,48.379L44.001,48.2931L44.1098,48.2061L44.2179,48.1191L44.3257,48.0311L44.4329,47.9422L44.5394,47.8532L44.6455,47.7632L44.751,47.6721L44.856,47.5811L44.9604,47.4901L45.0643,47.3971L45.1677,47.304L45.2704,47.211L45.3726,47.1169L45.4743,47.0219L45.5752,46.9268L45.6759,46.8307L45.7758,46.7336L45.8751,46.6366L45.9739,46.5385L46.0721,46.4404L46.1699,46.3412L46.2668,46.2421L46.3632,46.142L46.4591,46.0409L46.5544,45.9398L46.649,45.8376L46.7431,45.7355L46.8366,45.6323L46.9295,45.5282L47.0217,45.424L47.1133,45.3198L47.2043,45.2147L47.2948,45.1085L47.3845,45.0023L47.4736,44.8951L47.5622,44.7879L47.65,44.6797L47.7372,44.5715L47.8238,44.4622L47.9098,44.353L47.9952,44.2428L48.08,44.1315L48.1639,44.0203L48.2473,43.909L48.33,43.7968L48.4122,43.6835L48.4935,43.5713L48.5743,43.457L48.6544,43.3427L48.7338,43.2284L48.8126,43.1131L48.8906,42.9968L48.968,42.8805L49.0447,42.7642L49.1208,42.6469L49.1961,42.5296L49.2709,42.4113L49.3448,42.292L49.4181,42.1736L49.5625,41.934L49.6338,41.8126L49.7042,41.6923L49.774,41.5709L49.8431,41.4485L49.9114,41.3262L49.979,41.2038L50.046,41.0804L50.1121,40.956L50.1777,40.8326L50.2424,40.7072L50.3064,40.5829L50.3697,40.4574L50.4322,40.331L50.494,40.2046L50.5551,40.0782L50.6154,39.9508L50.675,39.8234L50.7338,39.6949L50.7919,39.5665L50.8493,39.438L50.9058,39.3086L50.9616,39.1792L51.0166,39.0487L51.0709,38.9182L51.1245,38.7878L51.1772,38.6563L51.2291,38.5248L51.2803,38.3924L51.3308,38.2609L51.3804,38.1274L51.4292,37.9939L51.4772,37.8604L51.5246,37.7269L51.571,37.5924L51.6167,37.4579L51.6616,37.3224L51.7057,37.1869L51.7489,37.0514L51.7915,36.9148L51.8331,36.7783L51.8739,36.6418L51.914,36.5053L51.9532,36.3667L51.9916,36.2292L52.0292,36.0906L52.066,35.9521L52.1019,35.8135L52.137,35.674L52.1712,35.5344L52.2047,35.3948L52.2372,35.2543L52.269,35.1137L52.2999,34.9721L52.3299,34.8315L52.3592,34.6899L52.3875,34.5474L52.415,34.4058L52.4417,34.2632L52.4675,34.1196L52.4924,33.977L52.5165,33.8334L52.5396,33.6898L52.5619,33.5451L52.5834,33.4005L52.6039,33.2559L52.6236,33.1113L52.6424,32.9657L52.6602,32.82L52.6773,32.6744L52.6934,32.5278L52.7086,32.3811L52.7229,32.2345L52.7364,32.0878L52.7489,31.9402L52.7605,31.7925L52.7712,31.6449L52.7809,31.4962L52.7899,31.3486L52.7978,31.1999L52.8048,31.0502L52.8109,30.9016L52.816,30.7519L52.8203,30.6022L52.8236,30.4526L52.826,30.3019L52.8274,30.1512L52.8279,30.0005L52.8274,29.8498L52.826,29.6991L52.8236,29.5485L52.8203,29.3988L52.816,29.2491L52.8109,29.0994L52.8048,28.9498L52.7978,28.8011L52.7899,28.6524L52.7809,28.5038L52.7712,28.3561L52.7605,28.2075L52.7489,28.0608L52.7364,27.9132L52.7229,27.7655L52.7086,27.6189L52.6934,27.4722L52.6773,27.3266L52.6602,27.181L52.6424,27.0353L52.6236,26.8897L52.6039,26.7451L52.5834,26.5995L52.5619,26.4559L52.5396,26.3112L52.5165,26.1676L52.4924,26.024L52.4675,25.8804L52.4417,25.7378L52.415,25.5952L52.3875,25.4526L52.3592,25.3111L52.3299,25.1695L52.2999,25.0279L52.269,24.8873L52.2372,24.7468L52.2047,24.6062L52.1712,24.4666L52.137,24.3271L52.1019,24.1875L52.066,24.0489L52.0293,23.9094L51.9916,23.7718L51.9532,23.6333L51.914,23.4958L51.8739,23.3592L51.8331,23.2217L51.7914,23.0852L51.7489,22.9497L51.7057,22.8131L51.6616,22.6776L51.6167,22.5431L51.571,22.4086L51.5246,22.2741L51.4772,22.1396L51.4292,22.0061L51.3804,21.8736L51.3308,21.7401L51.2804,21.6076L51.2291,21.4762L51.1772,21.3447L51.1245,21.2132L51.0709,21.0818L51.0166,20.9513L50.9616,20.8219L50.9058,20.6924L50.8493,20.563L50.7919,20.4335L50.7338,20.3051L50.675,20.1777L50.6154,20.0502L50.5551,19.9228L50.494,19.7954L50.4322,19.67L50.3697,19.5436L50.3064,19.4182L50.2424,19.2928L50.1777,19.1684L50.1121,19.044L50.046,18.9206L49.9791,18.7972L49.9114,18.6748L49.8431,18.5525L49.774,18.4301L49.7042,18.3088L49.6338,18.1874L49.5625,18.067L49.4906,17.9467L49.4181,17.8274L49.3448,17.708L49.2708,17.5897L49.1961,17.4714L49.1209,17.3541L49.0447,17.2368L48.968,17.1195L48.8906,17.0042L48.8126,16.8879L48.7338,16.7726L48.6543,16.6583L48.5743,16.544L48.4936,16.4297L48.4122,16.3165L48.33,16.2042L48.2473,16.092L48.1639,15.9797L48.0799,15.8685L47.9952,15.7582L47.9099,15.648L47.8238,15.5388L47.7372,15.4296L47.65,15.3213L47.5622,15.2131L47.4736,15.1049L47.3845,14.9987L47.2948,14.8925L47.2043,14.7864L47.1133,14.6812L47.0217,14.576L46.9294,14.4718L46.8366,14.3687L46.7432,14.2655L46.649,14.1634L46.5544,14.0613L46.459,13.9601L46.3632,13.859L46.2669,13.7589L46.1699,13.6598L46.0721,13.5607L45.9739,13.4626L45.8751,13.3645L45.7758,13.2674L45.6759,13.1703L45.5752,13.0742L45.4743,12.9792L45.3726,12.8841L45.2704,12.79L45.1677,12.696L45.0643,12.6029L44.9604,12.5109L44.856,12.4199L44.751,12.3279L44.6455,12.2379L44.5394,12.1479L44.4329,12.0589L44.3257,11.9699L44.2179,11.8819L44.1098,11.7949L44.001,11.7079L43.8917,11.622L43.782,11.537L43.6717,11.4521L43.5609,11.3681L43.4495,11.2842L43.3377,11.2023L43.2255,11.1204L43.1126,11.0384L42.9992,10.9575L42.8854,10.8776L42.771,10.7978L42.6562,10.7199L42.5409,10.642L42.425,10.5641L42.3089,10.4873L42.1921,10.4114L42.0748,10.3366L41.957,10.2618L41.8388,10.1879L41.7203,10.1151L41.6011,10.0423L41.4814,9.9705L41.3615,9.89971L41.241,9.82892L41.1199,9.75914L40.9986,9.69037L40.8767,9.62261L40.7545,9.55486L40.6318,9.48811L40.5086,9.42237L40.385,9.35664L40.2608,9.29293L40.1363,9.2282L40.0115,9.1655L39.8862,9.10381L39.7604,9.04212L39.6344,8.98144L39.5077,8.92076L39.3806,8.8611L39.2533,8.80345L39.1255,8.74581L38.9971,8.68816L38.8685,8.63254L38.7396,8.57692L38.6102,8.52231L38.4803,8.4677L38.3499,8.41511L38.2195,8.36252L38.0885,8.31094L37.9569,8.26038L37.8253,8.20981L37.6931,8.16026L37.5606,8.11273L37.4278,8.06418L37.2945,8.01766L37.1608,7.97216L37.0268,7.92665L36.8926,7.88215L36.7579,7.83866L36.6226,7.79518L36.4872,7.75371L36.3514,7.71225L36.2152,7.6718L36.0788,7.63236L35.9419,7.59393L35.8048,7.5555L35.6673,7.51909L35.5293,7.48268L35.3912,7.44729L35.2527,7.4129L35.1137,7.37852L34.9745,7.34615L34.8351,7.31379L34.6952,7.28345L34.5549,7.25311L34.4145,7.22277L34.2739,7.19446L34.1324,7.16715L33.9911,7.13985L33.8493,7.11456L33.7072,7.08928L33.5649,7.06501L33.4223,7.04175L33.2792,7.01849L33.1361,6.99725L32.9925,6.97703L32.8484,6.9568L32.7043,6.93759L32.5599,6.91938L32.4151,6.90219L32.2702,6.88601L32.1249,6.87084L31.9792,6.85668L31.6873,6.83039L31.5408,6.81926L31.394,6.80814L31.247,6.79802L31.0997,6.78892L30.9523,6.78083L30.8044,6.77375L30.6563,6.76769L30.5079,6.76263L30.3594,6.75858L30.0614,6.75252L29.7625,6.75049L29.4634,6.75252L29.1655,6.75858L29.017,6.76263L28.8686,6.76769L28.7205,6.77375L28.5726,6.78083L28.4253,6.78892L28.278,6.79802L28.1309,6.80814L27.9841,6.81926L27.8376,6.83039L27.5458,6.85668L27.4,6.87084L27.2547,6.88601L27.1097,6.90219L26.965,6.91938L26.8206,6.93759L26.6765,6.9568L26.5324,6.97703L26.3889,6.99725L26.2457,7.01849L26.1026,7.04175L25.9599,7.06501L25.8177,7.08928L25.6756,7.11456L25.5338,7.13985L25.3925,7.16715L25.251,7.19446L25.1105,7.22379L24.97,7.25311L24.8297,7.28345L24.6899,7.31379L24.5504,7.34615L24.4113,7.37852L24.2722,7.4129L24.1336,7.44729L23.9956,7.48268L23.8576,7.51909L23.7202,7.5555L23.583,7.59393L23.4462,7.63236L23.3097,7.6718L23.1736,7.71225L23.0377,7.75371L22.9023,7.79518L22.7671,7.83866L22.6323,7.88215L22.4981,7.92665L22.3641,7.97216L22.2304,8.01766L22.0971,8.06418L21.9643,8.11273L21.8319,8.16026L21.6996,8.20981L21.5679,8.26038L21.4365,8.31094L21.3054,8.36252L21.175,8.41511L21.0447,8.4677L20.9147,8.52231L20.7853,8.57692L20.6564,8.63254L20.5279,8.68816L20.3994,8.74581L20.2716,8.80345L20.1443,8.8611L20.0171,8.92076L19.8906,8.98144L19.7645,9.04212L19.6387,9.10381L19.5134,9.1655L19.3886,9.2282L19.2641,9.29293L19.1399,9.35664L19.0163,9.42237L18.8931,9.48811L18.7704,9.55486L18.6481,9.62261L18.5263,9.69037L18.405,9.75914L18.2839,9.82892L18.1634,9.89971L18.0435,9.9705L17.9238,10.0423L17.8046,10.1151L17.686,10.1879L17.5679,10.2618L17.4501,10.3366L17.3329,10.4114L17.2161,10.4873L17.0999,10.5641L16.984,10.642L16.8687,10.7199L16.7539,10.7978L16.6396,10.8776L16.5257,10.9575L16.4123,11.0384L16.2994,11.1204L16.1872,11.2023L16.0754,11.2842L15.964,11.3681L15.8532,11.4521L15.7429,11.537L15.6333,11.622L15.5239,11.7079L15.415,11.7949L15.307,11.8819L15.1992,11.9699L15.0921,12.0589L14.9855,12.1479L14.8795,12.2379L14.7739,12.3279L14.6689,12.4199L14.5645,12.5109L14.4606,12.6029L14.3573,12.696L14.2545,12.79L14.1523,12.8841L14.0506,12.9792L13.9496,13.0742L13.849,13.1703L13.7491,13.2674L13.6498,13.3645L13.551,13.4626L13.4528,13.5607L13.3551,13.6598L13.258,13.7589L13.1617,13.859L13.0659,13.9601L12.9705,14.0613L12.8758,14.1634L12.7818,14.2655L12.6884,14.3687L12.5956,14.4718L12.5033,14.576L12.4117,14.6812L12.3207,14.7864L12.2302,14.8925L12.1405,14.9987L12.0514,15.1049L11.9628,15.2131L11.8749,15.3213L11.7877,15.4296L11.7011,15.5388L11.615,15.648L11.5298,15.7582L11.4451,15.8685L11.361,15.9797L11.2776,16.092L11.1949,16.2042L11.1128,16.3165L11.0313,16.4297L10.9506,16.544L10.8706,16.6583L10.7911,16.7726L10.7124,16.8879L10.6343,17.0042L10.5569,17.1195L10.4802,17.2368L10.404,17.3541L10.3288,17.4714L10.2542,17.5897L10.1801,17.708L10.1069,17.8274L10.0343,17.9467L9.96229,18.067L9.89116,18.1874L9.82073,18.3088L9.7509,18.4301L9.68187,18.5525L9.61354,18.6748L9.54582,18.7972L9.4789,18.9206L9.41278,19.044L9.34727,19.1684L9.28255,19.2928L9.21854,19.4182L9.15523,19.5436L9.09263,19.67L9.03093,19.7954L8.96982,19.9228L8.90953,20.0502L8.84993,20.1777L8.79114,20.3051L8.73305,20.4335L8.67566,20.563L8.61917,20.6924L8.56329,20.8219L8.50831,20.9513L8.45403,21.0818L8.40045,21.2132L8.34778,21.3447L8.29581,21.4762L8.24454,21.6076L8.19417,21.7401L8.14451,21.8736L8.09575,22.0061L8.04769,22.1396L8.00033,22.2741L7.95388,22.4086L7.90823,22.5431L7.86328,22.6776L7.81924,22.8131L7.776,22.9497L7.73346,23.0852L7.69182,23.2217L7.65098,23.3592L7.61095,23.4958L7.57172,23.6333L7.5333,23.7718L7.49567,23.9094L7.45895,24.0489L7.42303,24.1875L7.38792,24.3271L7.3536,24.4666L7.32019,24.6062L7.28759,24.7468L7.25588,24.8873L7.22498,25.0279L7.19488,25.1695L7.16569,25.3111L7.13739,25.4526L7.1099,25.5952L7.08321,25.7378L7.05743,25.8804L7.03255,26.024L7.00847,26.1676L6.98529,26.3112L6.96302,26.4559L6.94155,26.5995L6.92098,26.7451L6.90132,26.8897L6.88255,27.0353L6.8646,27.181L6.84764,27.3266L6.83149,27.4722L6.81634,27.6189L6.80199,27.7655L6.78854,27.9132L6.776,28.0608L6.76447,28.2075L6.75373,28.3561L6.7439,28.5038L6.73507,28.6524L6.72714,28.8011L6.72012,28.9498L6.714,29.0994L6.70888,29.2491L6.70457,29.3988L6.70126,29.5485L6.69895,29.6991L6.69755,29.8498L6.69704,30.0005L6.69755,30.1512L6.69895,30.3019L6.70126,30.4515L6.70457,30.6022L6.70888,30.7519L6.714,30.9016L6.72012,31.0502L6.72714,31.1999L6.73507,31.3486L6.7439,31.4972L6.75373,31.6449L6.76447,31.7925L6.776,31.9402L6.78854,32.0878L6.80199,32.2345L6.81634,32.3811L6.83149,32.5278L6.84764,32.6744L6.8646,32.82L6.88255,32.9657L6.90132,33.1113L6.92098,33.2559L6.94155,33.4005L6.96302,33.5451L6.98529,33.6898L7.00847,33.8334L7.03255,33.977L7.05743,34.1196L7.08321,34.2632L7.1099,34.4058L7.13739,34.5474L7.16569,34.6899L7.19488,34.8315L7.22498,34.9721L7.25588,35.1137L7.28759,35.2543L7.32019,35.3948L7.35371,35.5344L7.38792,35.674L7.42303,35.8135L7.45895,35.9521L7.49567,36.0906L7.5333,36.2292L7.57172,36.3667L7.61095,36.5042L7.65098,36.6418L7.69182,36.7783L7.73346,36.9148L7.776,37.0514L7.81924,37.1869L7.86328,37.3224L7.90823,37.4579L7.95388,37.5924L8.00033,37.7269L8.04759,37.8604L8.09565,37.9939L8.14451,38.1274L8.19417,38.2609L8.24464,38.3924L8.29581,38.5248L8.34778,38.6563L8.40045,38.7878L8.45403,38.9182L8.50831,39.0487L8.56329,39.1792L8.61917,39.3086L8.67566,39.438L8.73305,39.5665L8.79114,39.6949L8.84993,39.8234L8.90943,39.9508L8.96982,40.0782L9.03093,40.2046L9.09273,40.331L9.15523,40.4574L9.21854,40.5829L9.28255,40.7072L9.34727,40.8326L9.41278,40.956L9.4789,41.0804L9.54592,41.2038L9.61354,41.3262L9.68187,41.4485L9.7509,41.5709L9.82073,41.6923L9.89116,41.8126L9.96229,41.934L10.0343,42.0533L10.1069,42.1736L10.1801,42.292L10.2541,42.4113L10.3288,42.5296L10.4041,42.6469L10.4802,42.7642L10.5569,42.8805L10.6343,42.9968L10.7124,43.1131L10.7911,43.2284L10.8705,43.3427L10.9506,43.457L11.0314,43.5713L11.1128,43.6835L11.1949,43.7968L11.2776,43.909L11.361,44.0203L11.445,44.1315L11.5298,44.2428L11.6151,44.353L11.7011,44.4622L11.7877,44.5715L11.8749,44.6797L11.9628,44.7879L12.0514,44.8951L12.1405,45.0023L12.2302,45.1085L12.3207,45.2147L12.4117,45.3198L12.5033,45.424L12.5955,45.5282L12.6884,45.6323L12.7819,45.7355L12.8758,45.8376L12.9705,45.9398L13.0658,46.0409L13.1617,46.142L13.2581,46.2421L13.3551,46.3412L13.4528,46.4404L13.551,46.5385L13.6498,46.6366L13.7491,46.7336L13.849,46.8307L13.9496,46.9268L14.0506,47.0219L14.1523,47.1169L14.2545,47.211L14.3573,47.304L14.4606,47.3971L14.5645,47.4901L14.6689,47.5811L14.7739,47.6721L14.8795,47.7632L14.9855,47.8532L15.0921,47.9422L15.1992,48.0311L15.307,48.1191L15.415,48.2061L15.5239,48.2931L15.6333,48.379L15.7429,48.464L15.8532,48.5489L15.964,48.6329L16.0752,48.7158L16.1872,48.7987L16.2996,48.8806L16.4123,48.9626L16.5257,49.0435L16.6396,49.1234L16.7538,49.2022L16.8687,49.2811L16.984,49.359L17.0997,49.4369L17.2163,49.5137L17.333,49.5896L17.4501,49.6644L17.5677,49.7393L17.6859,49.8131L17.8047,49.8859L17.9239,49.9587L18.0433,50.0305L18.1634,50.1013L18.2839,50.1721L18.4048,50.2409L18.5264,50.3106L18.6481,50.3784L18.7704,50.4462L18.8933,50.5129L19.0163,50.5786L19.1399,50.6434L19.2641,50.7081L19.3886,50.7718L19.5134,50.8355L19.6387,50.8972L19.7644,50.9589L19.8906,51.0196L20.0173,51.0802L20.1442,51.1389L20.2716,51.1976L20.3995,51.2552L20.5277,51.3128L20.6564,51.3685L20.7855,51.4241L20.9147,51.4787L21.0447,51.5333L21.1748,51.5859L21.3054,51.6385L21.4367,51.6901L21.5679,51.7406L21.6994,51.7912L21.8317,51.8397L21.9643,51.8883L22.0973,51.9358L22.2306,51.9833L22.3639,52.0289L22.4981,52.0744L22.6325,52.1189L22.7671,52.1623L22.9023,52.2048L23.0377,52.2473L23.1736,52.2888L23.3097,52.3292L23.446,52.3687L23.5828,52.4071L23.7204,52.4445L23.8578,52.4819L23.9954,52.5183L24.1336,52.5537L24.2724,52.5881L24.4111,52.6215L24.5504,52.6549L24.8297,52.7176L24.9698,52.7479L25.1105,52.7772L25.2512,52.8066L25.3925,52.8339L25.5338,52.8602L25.6756,52.8864L25.8177,52.9117L25.9599,52.936L26.1026,52.9593L26.2457,52.9815L26.3889,53.0038L26.5324,53.024L26.6765,53.0442L26.9648,53.0806L27.1097,53.0978L27.4,53.1302L27.5458,53.1443L27.6915,53.1575L27.8376,53.1706L28.1309,53.1929L28.278,53.203L28.5726,53.2192L28.7205,53.2262L29.0168,53.2384L29.1655,53.2424L29.3145,53.2455L29.6127,53.2495Z" style="fill:rgb(15,82,93);"/>
                    </g>
                </g>
            </g>
            <g>
                <path d="M22.9181,25.9087C22.0473,24.7235 20.8192,24.1309 19.235,24.1309C17.0709,24.1309 15.9883,25.8956 15.9883,29.4251C15.9883,31.5599 16.3114,33.1002 16.9595,34.0488C17.6056,34.9974 18.4695,35.4717 19.5521,35.4717C20.3968,35.4717 21.0701,35.3129 21.5717,34.9974C22.0734,34.6808 22.5218,34.2601 22.9181,33.7333ZM28.045,41.8379C27.7942,43.1415 27.3387,44.2478 26.6795,45.157C26.0193,46.0652 25.1083,46.7963 23.9475,47.3495C22.7857,47.9027 21.2948,48.2718 19.4728,48.4559L17.5324,44.3469C18.5809,44.1892 19.4527,44.0041 20.147,43.7938C20.8413,43.5824 21.3981,43.2932 21.8175,42.924C22.2369,42.5549 22.5248,42.0948 22.6824,41.5416C22.8399,40.9884 22.9181,39.6595 22.9181,38.8697C22.3914,39.3177 21.7794,39.7192 21.0821,40.0752C20.3858,40.4301 19.537,40.6081 18.5367,40.6081C17.4321,40.6081 16.3927,40.3968 15.4185,39.9761C14.4442,39.5554 13.5904,38.8889 12.853,37.9808C12.1166,37.0716 11.5377,35.9258 11.1163,34.5433C10.6959,33.1598 10.4852,31.4942 10.4852,29.5444C10.4852,27.99 10.6638,26.5681 11.018,25.2767C11.3731,23.9862 11.8928,22.8728 12.5771,21.9373C13.2614,21.0029 14.1031,20.2778 15.1034,19.764C16.1037,19.2503 17.2485,18.9934 18.5367,18.9934C19.4577,18.9934 20.2925,19.1522 21.043,19.4677C21.7924,19.7843 22.4175,20.1665 22.9181,20.6135L22.9181,19.4283L28.4213,19.4283L28.4213,36.6569C28.4213,38.3701 28.2958,40.5333 28.045,41.8379" style="fill:white;fill-rule:nonzero;"/>
            </g>
            <g>
                <path d="M36.4508,33.9385C37.3216,35.1238 38.5497,35.7164 40.1339,35.7164C42.298,35.7164 43.3806,33.9517 43.3806,30.4222C43.3806,28.2873 43.0575,26.7471 42.4094,25.7985C41.7633,24.8499 40.8994,24.3756 39.8169,24.3756C38.9721,24.3756 38.2989,24.5344 37.7972,24.8499C37.2956,25.1664 36.8471,25.5871 36.4508,26.114ZM31.3239,18.0094C31.5747,16.7058 32.0302,15.5995 32.6894,14.6903C33.3496,13.7821 34.2606,13.051 35.4214,12.4978C36.5832,11.9446 38.0741,11.5755 39.8961,11.3904L41.8365,15.5003C40.7881,15.6581 39.9162,15.8432 39.2219,16.0535C38.5276,16.2649 37.9708,16.5541 37.5514,16.9233C37.132,17.2924 36.8441,17.7525 36.6866,18.3057C36.529,18.8589 36.4508,20.1878 36.4508,20.9776C36.9775,20.5296 37.5895,20.1281 38.2868,19.7721C38.9831,19.4171 39.8319,19.2392 40.8322,19.2392C41.9368,19.2392 42.9763,19.4505 43.9505,19.8712C44.9247,20.2919 45.7785,20.9584 46.5159,21.8665C47.2523,22.7757 47.8312,23.9215 48.2526,25.304C48.673,26.6875 48.8837,28.3531 48.8837,30.3029C48.8837,31.8573 48.7051,33.2792 48.3509,34.5706C47.9958,35.861 47.4761,36.9745 46.7918,37.91C46.1076,38.8444 45.2658,39.5695 44.2655,40.0833C43.2652,40.597 42.1204,40.8539 40.8322,40.8539C39.9112,40.8539 39.0764,40.6951 38.326,40.3796C37.5765,40.063 36.9514,39.6808 36.4508,39.2338L36.4508,40.419L30.9477,40.419L30.9477,23.1903C30.9477,21.4772 31.0731,19.314 31.3239,18.0094" style="fill:white;fill-rule:nonzero;"/>
            </g>
            <g>
                <clipPath id="tag2">
                    <rect x="66.9408" y="11.3904" width="158.059" height="37.0655"/>
                </clipPath>
                <g clip-path="url(#tag2)">
                    <g opacity="0.759995">
                        <path d="M79.3737,25.9087C78.5028,24.7235 77.2748,24.1309 75.6905,24.1309C73.5264,24.1309 72.444,25.8956 72.444,29.4251C72.444,31.5599 72.7669,33.1002 73.415,34.0488C74.0612,34.9974 74.925,35.4717 76.0076,35.4717C76.8524,35.4717 77.5256,35.3129 78.0272,34.9974C78.5289,34.6808 78.9774,34.2601 79.3737,33.7333ZM84.5005,41.8379C84.2497,43.1415 83.7942,44.2478 83.135,45.157C82.4749,46.0652 81.5639,46.7963 80.4031,47.3495C79.2412,47.9027 77.7503,48.2718 75.9283,48.4559L73.9879,44.3469C75.0364,44.1892 75.9083,44.0041 76.6025,43.7938C77.2968,43.5824 77.8537,43.2932 78.273,42.924C78.6924,42.5549 78.9804,42.0948 79.1379,41.5416C79.2954,40.9884 79.3737,39.6595 79.3737,38.8697C78.8469,39.3177 78.2349,39.7192 77.5376,40.0752C76.8413,40.4301 75.9925,40.6081 74.9922,40.6081C73.8876,40.6081 72.8482,40.3968 71.8741,39.9761C70.8999,39.5554 70.0461,38.8889 69.3086,37.9808C68.5722,37.0716 67.9933,35.9258 67.5719,34.5433C67.1515,33.1598 66.9408,31.4942 66.9408,29.5444C66.9408,27.99 67.1194,26.5681 67.4736,25.2767C67.8288,23.9862 68.3485,22.8728 69.0327,21.9373C69.717,21.0029 70.5587,20.2778 71.559,19.764C72.5583,19.2503 73.704,18.9934 74.9922,18.9934C75.9133,18.9934 76.748,19.1522 77.4985,19.4677C78.248,19.7843 78.873,20.1665 79.3737,20.6135L79.3737,19.4283L84.8768,19.4283L84.8768,36.6569C84.8768,38.3701 84.7514,40.5333 84.5005,41.8379" style="fill:rgb(15,82,93);fill-rule:nonzero;"/>
                        <path d="M162.062,33.9385C162.933,35.1238 164.161,35.7164 165.745,35.7164C167.909,35.7164 168.992,33.9517 168.992,30.4222C168.992,28.2873 168.669,26.7471 168.02,25.7985C167.374,24.8499 166.51,24.3756 165.428,24.3756C164.583,24.3756 163.91,24.5344 163.408,24.8499C162.907,25.1664 162.458,25.5871 162.062,26.114ZM156.935,18.0094C157.186,16.7058 157.641,15.5995 158.3,14.6903C158.961,13.7821 159.872,13.051 161.032,12.4978C162.194,11.9446 163.685,11.5755 165.507,11.3904L167.448,15.5003C166.399,15.6581 165.527,15.8432 164.833,16.0535C164.139,16.2649 163.582,16.5541 163.162,16.9233C162.743,17.2924 162.455,17.7525 162.298,18.3057C162.14,18.8589 162.062,20.1878 162.062,20.9776C162.589,20.5296 163.201,20.1281 163.898,19.7721C164.594,19.4171 165.443,19.2392 166.443,19.2392C167.548,19.2392 168.587,19.4505 169.562,19.8712C170.536,20.2919 171.39,20.9584 172.127,21.8665C172.863,22.7757 173.442,23.9215 173.864,25.304C174.284,26.6875 174.495,28.3531 174.495,30.3029C174.495,31.8573 174.316,33.2792 173.962,34.5706C173.607,35.861 173.087,36.9745 172.403,37.91C171.719,38.8444 170.877,39.5695 169.877,40.0833C168.877,40.597 167.731,40.8539 166.443,40.8539C165.522,40.8539 164.687,40.6951 163.937,40.3796C163.188,40.063 162.562,39.6808 162.062,39.2338L162.062,40.419L156.559,40.419L156.559,23.1903C156.559,21.4772 156.684,19.314 156.935,18.0094" style="fill:rgb(15,82,93);fill-rule:nonzero;"/>
                        <path d="M219.497,26.1151C219.101,25.5882 218.652,25.1664 218.15,24.8509C217.649,24.5344 216.976,24.3766 216.131,24.3766C215.048,24.3766 214.184,24.8509 213.538,25.7995C212.89,26.7471 212.567,28.2884 212.567,30.4222C212.567,33.9517 213.65,35.7174 215.814,35.7174C217.398,35.7174 218.626,35.1248 219.497,33.9396ZM225,23.1914L225,40.419L219.497,40.419L219.497,39.2338C218.996,39.6818 218.371,40.064 217.622,40.3796C216.871,40.6961 216.036,40.8539 215.115,40.8539C213.827,40.8539 212.682,40.597 211.682,40.0833C210.682,39.5695 209.84,38.8454 209.156,37.91C208.472,36.9745 207.952,35.8621 207.597,34.5716C207.243,33.2802 207.064,31.8573 207.064,30.3039C207.064,28.3541 207.275,26.6885 207.695,25.305C208.116,23.9225 208.695,22.7757 209.432,21.8676C210.169,20.9584 211.023,20.2929 211.997,19.8722C212.971,19.4505 214.011,19.2392 215.115,19.2392C216.116,19.2392 216.965,19.4171 217.661,19.7731C218.358,20.1291 218.97,20.5296 219.497,20.9786C219.497,20.1878 219.419,18.8599 219.261,18.3067C219.104,17.7535 218.816,17.2924 218.396,16.9233C217.977,16.5551 217.42,16.2649 216.726,16.0545C216.031,15.8442 215.16,15.6591 214.111,15.5014L216.052,11.3914C217.874,11.5765 219.364,11.9446 220.526,12.4978C221.687,13.051 222.598,13.7821 223.258,14.6913C223.917,15.5995 224.373,16.7058 224.624,18.0104C224.875,19.314 225,21.4782 225,23.1914" style="fill:rgb(15,82,93);fill-rule:nonzero;"/>
                        <path d="M100.476,25.7904C100.027,25.3839 99.538,25.0522 99.0113,24.7943C98.4826,24.5364 97.9147,24.407 97.3087,24.407C96.78,24.407 96.2984,24.4737 95.8629,24.6052C95.4275,24.7376 95.0583,24.9753 94.7543,25.3192C94.4513,25.662 94.2135,26.1242 94.0419,26.7057C93.8694,27.2862 93.7841,28.0254 93.7841,28.9235L93.7841,40.1743L88.281,40.1743L88.281,19.4151L93.7841,19.4151L93.7841,20.7986C94.2597,20.302 94.8476,19.8773 95.5459,19.5233C96.2452,19.1704 97.084,18.9934 98.0612,18.9934C98.9571,18.9934 99.7297,19.1461 100.377,19.4485C101.024,19.7519 101.532,20.0876 101.902,20.4558Z" style="fill:rgb(15,82,93);fill-rule:nonzero;"/>
                        <path d="M115.055,31.4801C114.585,31.1908 114.082,30.9734 113.547,30.8278C113.013,30.6831 112.262,30.6113 111.297,30.6113C110.278,30.6113 109.503,30.8348 108.968,31.2828C108.433,31.7309 108.165,32.3761 108.165,33.2185C108.165,33.9567 108.4,34.602 108.871,35.1552C109.34,35.7083 110.149,35.9844 111.297,35.9844C112.185,35.9844 112.96,35.7943 113.626,35.412C114.292,35.0297 114.768,34.5888 115.055,34.0882ZM115.055,40.1733L115.094,38.7908C114.593,39.3177 113.932,39.7526 113.115,40.0944C112.297,40.4362 111.399,40.6081 110.422,40.6081C109.446,40.6081 108.496,40.4564 107.571,40.1541C106.647,39.8507 105.823,39.3966 105.096,38.7908C104.371,38.185 103.784,37.4205 103.335,36.4982C102.886,35.5769 102.662,34.4836 102.662,33.2185C102.662,32.0868 102.879,31.0846 103.312,30.2159C103.747,29.3462 104.345,28.6292 105.108,28.0618C105.871,27.4955 106.76,27.0677 107.773,26.7775C108.786,26.4882 109.884,26.3436 111.069,26.3436C112.015,26.3436 112.805,26.4296 113.436,26.5995C114.067,26.7714 114.608,26.9625 115.055,27.1729L115.055,26.1454C115.055,25.4081 114.81,24.7821 114.323,24.2684C113.834,23.7547 113.089,23.4978 112.085,23.4978C111.451,23.4978 110.891,23.5251 110.403,23.5767C109.913,23.6303 109.453,23.7091 109.017,23.8143C108.581,23.9195 108.152,24.058 107.73,24.229C107.308,24.4009 106.859,24.6183 106.384,24.8813L104.286,21.0878C104.893,20.746 105.48,20.4426 106.047,20.1787C106.614,19.9157 107.208,19.6983 107.829,19.5264C108.448,19.3555 109.103,19.224 109.789,19.132C110.475,19.0399 111.241,18.9934 112.085,18.9934C113.353,18.9934 114.503,19.1512 115.538,19.4677C116.571,19.7832 117.461,20.2515 118.206,20.8704C118.95,21.4893 119.528,22.2529 119.94,23.162C120.353,24.0712 120.558,25.1048 120.558,26.2637L120.558,40.1733Z" style="fill:rgb(15,82,93);fill-rule:nonzero;"/>
                        <path d="M147.997,40.1733L147.997,28.9508C147.997,27.1071 147.728,25.843 147.19,25.1573C146.651,24.4727 145.819,24.1299 144.69,24.1299C143.562,24.1299 142.722,24.4666 142.171,25.1381C141.62,25.8096 141.345,27.0414 141.345,28.8324L141.345,40.1733L135.842,40.1733L135.842,28.9508C135.842,27.1071 135.572,25.843 135.035,25.1573C134.496,24.4727 133.663,24.1299 132.535,24.1299C131.406,24.1299 130.567,24.4666 130.015,25.1381C129.465,25.8096 129.19,27.0414 129.19,28.8324L129.19,40.1733L123.686,40.1733L123.686,19.4283L129.19,19.4283L129.15,20.8107C129.625,20.3111 130.226,19.8824 130.954,19.5264C131.682,19.1714 132.6,18.9934 133.711,18.9934C135.032,18.9934 136.129,19.1977 137.001,19.6063C137.874,20.0148 138.694,20.6924 139.461,21.641C140.175,20.9038 141.028,20.2778 142.019,19.764C143.01,19.2503 144.366,18.9934 146.084,18.9934C147.406,18.9934 148.535,19.2108 149.474,19.6447C150.413,20.0796 151.18,20.7126 151.775,21.5419C152.37,22.3722 152.806,23.3734 153.083,24.5455C153.361,25.7176 153.5,27.0283 153.5,28.4765L153.5,40.1733Z" style="fill:rgb(15,82,93);fill-rule:nonzero;"/>
                        <path d="M190.15,29.8205C190.15,28.2398 189.829,26.916 189.19,25.8491C188.549,24.7821 187.563,24.2492 186.23,24.2492C184.897,24.2492 183.917,24.7761 183.29,25.8299C182.663,26.8836 182.35,28.2135 182.35,29.8205C182.35,31.4275 182.663,32.7513 183.29,33.7919C183.917,34.8325 184.897,35.3524 186.23,35.3524C186.897,35.3524 187.476,35.2017 187.97,34.8983C188.463,34.5959 188.869,34.1873 189.19,33.6736C189.509,33.1598 189.75,32.5672 189.911,31.8947C190.069,31.2232 190.15,30.5314 190.15,29.8205M195.653,29.8205C195.653,31.4012 195.416,32.8575 194.941,34.1873C194.465,35.5172 193.812,36.6569 192.982,37.6045C192.15,38.5532 191.153,39.2914 189.992,39.8183C188.83,40.3442 187.577,40.6081 186.23,40.6081C184.884,40.6081 183.637,40.3442 182.489,39.8183C181.34,39.2914 180.35,38.5532 179.519,37.6045C178.688,36.6569 178.034,35.5172 177.559,34.1873C177.084,32.8575 176.847,31.4012 176.847,29.8205C176.847,28.2398 177.084,26.7845 177.559,25.4547C178.034,24.1238 178.688,22.978 179.519,22.0162C180.35,21.0555 181.34,20.3111 182.489,19.7832C183.637,19.2574 184.884,18.9934 186.23,18.9934C187.577,18.9934 188.83,19.2574 189.992,19.7832C191.153,20.3111 192.15,21.0555 192.982,22.0162C193.812,22.978 194.465,24.1238 194.941,25.4547C195.416,26.7845 195.653,28.2398 195.653,29.8205" style="fill:rgb(15,82,93);fill-rule:nonzero;"/>
                        <path d="M198.512,19.4283L204.016,19.4283L204.016,40.1733L198.512,40.1733ZM204.372,14.6074C204.372,15.4508 204.061,16.182 203.442,16.8009C202.821,17.4198 202.089,17.7293 201.244,17.7293C200.399,17.7293 199.667,17.4198 199.047,16.8009C198.426,16.182 198.117,15.4508 198.117,14.6074C198.117,13.7649 198.426,13.0338 199.047,12.4148C199.667,11.7959 200.399,11.4854 201.244,11.4854C202.089,11.4854 202.821,11.7959 203.442,12.4148C204.061,13.0338 204.372,13.7649 204.372,14.6074" style="fill:rgb(15,82,93);fill-rule:nonzero;"/>
                    </g>
                </g>
            </g>
        </g>
    </g>
</svg>
